<?xml version="1.0" encoding="UTF-8"?>
<svg xmlns="http://www.w3.org/2000/svg" xmlns:xlink="http://www.w3.org/1999/xlink" width="18px" height="18px" viewBox="0 0 18 18" version="1.1">
<g id="surface1">
<path style=" stroke:none;fill-rule:nonzero;fill:rgb(0%,0%,0%);fill-opacity:1;" d="M 5.121094 0.0664062 C 4.152344 0.125 3.460938 0.296875 2.699219 0.664062 C 2.152344 0.9375 2.007812 1.042969 1.523438 1.523438 C 1.042969 2.007812 0.9375 2.152344 0.664062 2.699219 C 0.0703125 3.933594 0.0117188 4.484375 0.0117188 9 C 0.0117188 13.515625 0.0703125 14.066406 0.664062 15.300781 C 0.9375 15.847656 1.042969 15.992188 1.523438 16.476562 C 2.007812 16.957031 2.152344 17.0625 2.699219 17.335938 C 3.910156 17.925781 4.652344 18 9 18 C 13.347656 18 14.089844 17.925781 15.300781 17.335938 C 15.847656 17.0625 15.992188 16.957031 16.476562 16.476562 C 16.957031 15.992188 17.0625 15.847656 17.335938 15.300781 C 17.925781 14.089844 18 13.347656 18 9 C 18 4.652344 17.925781 3.910156 17.335938 2.699219 C 17.0625 2.152344 16.957031 2.007812 16.476562 1.523438 C 15.992188 1.042969 15.847656 0.9375 15.300781 0.664062 C 14.53125 0.292969 13.851562 0.125 12.84375 0.0664062 C 11.898438 0 6.09375 0 5.121094 0.0664062 Z M 13.488281 1.761719 C 15.089844 2.078125 15.933594 2.929688 16.242188 4.570312 C 16.339844 5.066406 16.351562 5.566406 16.351562 9 C 16.351562 12.433594 16.339844 12.933594 16.242188 13.429688 C 15.929688 15.089844 15.089844 15.929688 13.429688 16.242188 C 12.933594 16.339844 12.433594 16.351562 9 16.351562 C 5.566406 16.351562 5.066406 16.339844 4.570312 16.242188 C 2.929688 15.933594 2.078125 15.089844 1.761719 13.488281 C 1.6875 13.082031 1.660156 12.371094 1.640625 9.777344 C 1.605469 6.441406 1.65625 4.933594 1.828125 4.207031 C 2.132812 2.964844 2.976562 2.121094 4.234375 1.824219 C 4.9375 1.660156 5.839844 1.632812 9.480469 1.648438 C 12.398438 1.664062 13.074219 1.6875 13.488281 1.761719 Z M 13.488281 1.761719 "/>
<path style=" stroke:none;fill-rule:nonzero;fill:rgb(0%,0%,0%);fill-opacity:1;" d="M 13.289062 3.257812 C 12.527344 3.6875 12.546875 4.753906 13.320312 5.144531 C 14.089844 5.53125 14.9375 4.960938 14.867188 4.101562 C 14.804688 3.332031 13.960938 2.878906 13.289062 3.257812 Z M 13.289062 3.257812 "/>
<path style=" stroke:none;fill-rule:nonzero;fill:rgb(0%,0%,0%);fill-opacity:1;" d="M 8.167969 4.441406 C 7.71875 4.539062 7.308594 4.683594 6.808594 4.9375 C 6.132812 5.277344 5.285156 6.132812 4.9375 6.808594 C 4.511719 7.636719 4.40625 8.070312 4.40625 9 C 4.40625 9.929688 4.511719 10.363281 4.9375 11.191406 C 5.277344 11.867188 6.132812 12.722656 6.808594 13.0625 C 7.636719 13.488281 8.070312 13.59375 9 13.59375 C 9.929688 13.59375 10.363281 13.488281 11.191406 13.0625 C 11.867188 12.722656 12.722656 11.867188 13.0625 11.191406 C 13.488281 10.363281 13.59375 9.929688 13.59375 9 C 13.59375 8.070312 13.488281 7.636719 13.0625 6.808594 C 12.714844 6.132812 11.867188 5.277344 11.191406 4.9375 C 10.429688 4.546875 9.980469 4.429688 9.152344 4.402344 C 8.757812 4.390625 8.308594 4.40625 8.167969 4.441406 Z M 9.691406 6.089844 C 10.277344 6.242188 10.683594 6.472656 11.097656 6.894531 C 12.300781 8.101562 12.300781 9.898438 11.097656 11.105469 C 9.917969 12.292969 8.082031 12.292969 6.902344 11.105469 C 5.699219 9.898438 5.699219 8.101562 6.902344 6.894531 C 7.648438 6.140625 8.703125 5.835938 9.691406 6.089844 Z M 9.691406 6.089844 "/>
</g>
</svg>
