<?xml version="1.0" standalone="no"?>
<!DOCTYPE svg PUBLIC "-//W3C//DTD SVG 20010904//EN"
 "http://www.w3.org/TR/2001/REC-SVG-20010904/DTD/svg10.dtd">
<svg version="1.0" xmlns="http://www.w3.org/2000/svg"
 width="1180.000000pt" height="180.000000pt" viewBox="0 0 1180.000000 180.000000"
 preserveAspectRatio="xMidYMid meet">

<g transform="translate(0.000000,180.000000) scale(0.100000,-0.100000)"
fill="#000000" stroke="none">
<path d="M10180 1347 c-25 -13 -55 -39 -68 -58 -16 -23 -36 -38 -65 -46 -42
-12 -42 -12 -82 26 -62 60 -170 83 -170 36 0 -21 5 -21 72 -9 28 6 38 1 68
-29 19 -19 35 -39 35 -43 0 -20 -55 -40 -85 -33 -65 18 -145 -24 -180 -95 -14
-27 -25 -57 -25 -65 0 -35 22 -92 46 -120 14 -17 23 -35 19 -41 -13 -21 -7
-91 10 -116 17 -26 17 -29 -5 -80 l-21 -53 19 -45 c24 -54 50 -70 88 -56 36
14 43 1 42 -75 -1 -42 6 -76 21 -110 15 -34 18 -52 11 -59 -6 -6 -42 -12 -81
-14 -66 -4 -73 -2 -115 27 -47 34 -55 31 -27 -9 24 -35 52 -59 98 -83 51 -27
174 -30 220 -6 19 11 37 14 50 8 35 -14 159 -10 208 7 60 20 141 93 172 155
14 26 28 73 31 104 6 52 9 56 28 50 12 -4 47 -9 78 -12 66 -6 100 12 149 80
25 35 29 49 29 107 0 52 -5 73 -19 91 -19 23 -19 24 11 66 62 85 46 183 -37
223 -54 26 -89 25 -152 -5 l-53 -24 0 27 c-1 42 -35 107 -72 135 -41 32 -106
48 -222 56 l-89 6 24 28 c18 21 37 30 74 35 34 5 50 12 50 22 0 24 -37 23 -85
-3z m80 -107 c17 -5 19 -8 7 -9 -10 -1 -37 -21 -61 -45 -35 -35 -46 -54 -51
-90 -14 -88 37 -168 122 -197 l37 -12 -25 -21 c-13 -12 -44 -45 -67 -74 -51
-61 -82 -67 -127 -26 -15 14 -25 27 -23 30 3 2 13 -5 23 -16 44 -48 115 -12
129 65 4 19 11 35 16 35 6 0 10 4 10 10 0 5 -6 7 -14 4 -8 -3 -24 -1 -35 6
-18 9 -21 8 -21 -9 0 -14 -17 -30 -52 -51 -49 -29 -59 -31 -129 -27 -151 7
-236 99 -199 213 24 72 145 179 189 167 14 -4 21 -1 21 9 0 8 16 19 35 25 35
11 35 11 35 -19 0 -36 23 -34 29 3 1 13 8 27 15 31 14 10 104 8 136 -2z m156
-45 c83 -54 85 -198 2 -258 -14 -11 -49 -22 -76 -25 -124 -11 -212 119 -153
228 44 83 147 108 227 55z m-526 -21 c0 -14 -29 -31 -64 -37 -35 -6 -86 -40
-86 -58 0 -3 9 -9 20 -12 12 -3 20 -14 20 -27 0 -13 -8 -24 -20 -27 -24 -6
-26 -26 -4 -43 18 -15 47 -81 39 -88 -10 -10 -60 34 -77 69 -39 76 -9 172 66
209 38 18 106 28 106 14z m837 -137 c31 -29 36 -40 36 -78 0 -42 -15 -82 -47
-122 -12 -16 -19 -17 -57 -7 -23 7 -58 23 -77 38 -25 19 -49 27 -93 30 -66 5
-81 16 -51 37 10 8 27 30 36 49 21 45 101 86 168 86 41 0 54 -5 85 -33z m-849
-209 l63 -30 -27 -14 c-14 -8 -38 -14 -53 -14 -14 0 -38 -7 -54 -14 -26 -14
-28 -14 -42 14 -16 31 -19 58 -9 85 8 21 35 15 122 -27z m652 17 c17 -9 30
-18 30 -21 0 -17 -47 -64 -64 -64 -18 0 -21 6 -21 50 0 55 7 60 55 35z m-132
-55 c1 -19 -2 -30 -10 -30 -9 0 -10 -3 -2 -8 8 -5 6 -12 -5 -23 -14 -14 -21
-14 -56 -2 l-40 13 35 -4 35 -5 -30 14 c-16 8 -23 14 -14 15 8 0 28 14 44 30
16 17 31 30 35 30 3 0 7 -13 8 -30z m291 14 c22 -16 51 -70 51 -95 0 -6 -20 7
-45 30 -31 28 -53 41 -72 40 l-28 -1 29 -8 c59 -18 114 -95 103 -142 -7 -27
-61 -88 -78 -88 -20 0 -99 86 -99 108 0 11 11 30 25 43 13 13 25 28 25 33 0 6
-16 -5 -35 -24 -39 -38 -43 -55 -19 -88 9 -13 14 -26 11 -28 -7 -8 -57 67 -57
85 0 8 15 30 33 49 18 19 25 30 15 27 -21 -8 -22 -2 -8 25 24 46 106 64 149
34z m-631 -60 c2 -17 -5 -24 -41 -36 l-44 -14 -16 28 c-16 28 -16 29 6 38 12
5 38 8 57 7 27 -2 36 -7 38 -23z m-148 -1 c16 -9 33 -27 40 -41 12 -27 4 -45
-10 -22 -5 8 -12 11 -16 7 -4 -4 3 -18 15 -31 l23 -25 -28 -40 c-16 -22 -33
-41 -38 -41 -5 0 -2 8 7 18 23 25 21 54 -4 86 -25 32 -38 27 -15 -6 25 -35 20
-64 -17 -92 -46 -35 -73 -33 -97 7 -31 50 -26 79 20 121 22 20 47 36 55 36 8
0 15 5 15 10 0 15 -11 12 -47 -10 -18 -11 -33 -15 -33 -10 0 14 61 50 83 50
11 0 32 -7 47 -17z m584 1 c20 -8 21 -28 1 -44 -21 -18 -19 -32 13 -84 21 -35
33 -45 53 -46 14 0 36 -11 49 -25 21 -22 21 -25 6 -31 -25 -9 -93 2 -120 20
-14 8 -30 32 -36 53 -7 21 -21 50 -32 65 l-19 28 28 35 c30 37 32 38 57 29z
m-399 -13 c-3 -5 5 -12 17 -14 21 -4 21 -4 -1 -3 -24 1 -44 26 -21 26 6 0 9
-4 5 -9z m270 -45 c45 -24 85 -86 85 -131 0 -30 -1 -29 -19 11 -30 67 -131
132 -210 135 -25 1 -25 2 4 9 41 10 92 2 140 -24z m-295 10 c0 -8 -93 -56 -98
-52 -9 10 8 37 30 46 24 9 68 13 68 6z m7 -29 c-45 -29 -80 -59 -63 -53 53 18
116 27 156 21 125 -19 225 -119 237 -239 5 -48 3 -55 -27 -89 -18 -20 -35 -37
-39 -37 -3 0 -6 28 -7 63 -1 175 -180 287 -341 213 -58 -28 -64 -38 -68 -137
-1 -38 -5 -72 -7 -75 -11 -10 -30 88 -25 125 10 81 67 160 145 200 40 22 68
27 39 8z m69 -233 c48 -23 77 -68 82 -128 3 -41 0 -56 -16 -76 -18 -22 -28
-25 -81 -24 -34 1 -64 4 -68 8 -4 3 6 19 20 34 32 34 35 74 7 102 -30 30 -69
25 -107 -12 -36 -35 -46 -33 -46 12 0 77 121 126 209 84z m-106 -84 c0 -18
-65 -83 -97 -96 -18 -8 -45 -14 -60 -14 -26 1 -25 2 10 14 21 8 60 35 87 60
51 47 60 53 60 36z"/>
<path d="M10281 1145 l-33 -28 27 -21 c30 -24 26 -53 -8 -65 -21 -8 -20 -8 5
-34 71 -71 178 -29 178 69 0 60 -31 94 -91 101 -39 4 -50 1 -78 -22z m142 -69
c7 -17 -18 -40 -33 -31 -5 3 -10 15 -10 26 0 23 35 27 43 5z"/>
<path d="M10345 760 c-3 -6 1 -7 9 -4 18 7 21 14 7 14 -6 0 -13 -4 -16 -10z"/>
<path d="M1460 1151 c0 -16 6 -31 15 -35 12 -4 15 -26 15 -104 0 -76 -4 -102
-15 -112 -8 -7 -15 -23 -15 -36 0 -23 3 -24 70 -24 l70 0 0 29 c0 17 -4 33
-10 36 -6 3 -10 50 -10 105 0 55 4 102 10 105 6 3 10 19 10 36 l0 29 -70 0
-70 0 0 -29z"/>
<path d="M1630 1151 c0 -16 6 -31 15 -35 12 -4 15 -26 15 -106 0 -80 -3 -102
-15 -106 -9 -4 -15 -19 -15 -35 l0 -29 70 0 c70 0 70 0 70 28 0 15 -5 33 -11
39 -6 6 -9 23 -7 39 3 26 8 29 41 32 33 3 37 1 38 -20 2 -35 -2 -53 -12 -56
-5 -2 -9 -17 -9 -33 l0 -29 70 0 70 0 0 29 c0 17 -4 33 -10 36 -6 3 -10 50
-10 105 0 55 4 102 10 105 6 3 10 19 10 36 l0 29 -70 0 -70 0 0 -29 c0 -17 5
-33 10 -36 6 -3 10 -22 10 -41 0 -35 -1 -35 -37 -32 -33 3 -38 6 -41 32 -2 16
1 33 7 39 6 6 11 24 11 39 0 28 0 28 -70 28 l-70 0 0 -29z"/>
<path d="M1980 1137 c0 -37 3 -43 19 -42 11 1 26 7 34 13 8 7 22 10 31 6 13
-5 16 -23 16 -110 0 -63 -4 -104 -10 -104 -5 0 -10 -13 -10 -30 l0 -30 64 0
c60 0 64 1 68 25 3 14 -1 30 -8 36 -16 13 -20 204 -5 213 5 3 24 0 42 -8 47
-19 59 -11 59 35 l0 39 -150 0 -150 0 0 -43z"/>
<path d="M2310 1150 c0 -16 5 -30 10 -30 6 0 10 -53 10 -140 l0 -140 115 0
115 0 0 30 0 30 -65 0 -65 0 0 40 0 40 45 0 c43 0 45 1 45 30 0 29 -2 30 -46
30 l-45 0 3 38 3 37 50 2 c28 1 56 2 63 2 7 1 12 14 12 31 l0 30 -125 0 -125
0 0 -30z"/>
<path d="M2600 1151 c0 -17 5 -33 10 -36 6 -4 10 -62 10 -141 l0 -134 50 0 50
0 0 65 c0 65 0 65 29 65 91 0 141 36 141 100 0 87 -39 110 -190 110 l-100 0 0
-29z m192 -54 c19 -30 -8 -67 -48 -67 -22 0 -24 4 -24 44 l0 44 33 -5 c17 -3
35 -10 39 -16z"/>
<path d="M2920 1150 c0 -16 5 -30 10 -30 6 0 10 -43 10 -110 0 -67 -4 -110
-10 -110 -5 0 -10 -13 -10 -30 l0 -30 70 0 70 0 0 30 c0 17 -4 30 -10 30 -5 0
-10 18 -10 40 l0 40 40 0 40 0 0 -40 c0 -22 -4 -40 -10 -40 -5 0 -10 -13 -10
-30 l0 -30 70 0 70 0 0 30 c0 17 -4 30 -10 30 -6 0 -10 43 -10 110 0 67 4 110
10 110 6 0 10 14 10 30 l0 30 -70 0 -70 0 0 -29 c0 -17 5 -33 10 -36 6 -3 10
-22 10 -41 0 -33 -1 -34 -40 -34 -39 0 -40 1 -40 34 0 19 5 38 10 41 6 3 10
19 10 36 l0 29 -70 0 -70 0 0 -30z"/>
<path d="M3270 1150 c0 -16 5 -30 10 -30 6 0 10 -53 10 -140 l0 -140 115 0
115 0 0 30 0 30 -65 0 -65 0 0 40 0 40 45 0 c43 0 45 1 45 30 0 29 -2 30 -46
30 l-45 0 3 38 3 37 60 0 60 0 3 33 3 32 -125 0 -126 0 0 -30z"/>
<path d="M3562 1138 c2 -35 7 -43 23 -43 11 0 25 3 31 8 7 4 21 10 33 12 20 4
21 0 21 -106 0 -66 -4 -109 -10 -109 -5 0 -10 -13 -10 -30 l0 -30 65 0 65 0 0
30 c0 17 -4 30 -10 30 -6 0 -10 43 -10 108 0 97 2 109 18 109 9 0 24 -5 32
-11 8 -7 24 -12 35 -12 17 1 20 8 20 41 l0 40 -153 3 -153 3 3 -43z"/>
<path d="M4120 1151 c0 -17 6 -31 16 -35 13 -5 15 -26 12 -141 l-3 -135 47 0
47 0 -4 81 c-4 88 2 91 30 14 22 -64 26 -67 69 -69 34 -1 36 0 58 59 l23 60 3
-72 3 -73 49 0 49 0 0 138 c1 81 5 138 11 140 6 2 10 17 10 33 l0 29 -72 0
-73 0 -29 -90 c-16 -50 -32 -93 -36 -95 -4 -2 -12 12 -18 33 -6 20 -18 63 -27
95 l-16 57 -75 0 -74 0 0 -29z"/>
<path d="M4629 1048 c-23 -73 -48 -138 -55 -144 -8 -6 -14 -23 -14 -38 0 -25
3 -26 49 -26 47 0 50 2 56 30 6 28 9 30 55 30 44 0 49 -2 59 -30 9 -28 13 -30
60 -30 49 0 51 1 49 26 -2 15 -8 28 -14 31 -6 2 -31 67 -55 144 l-44 139 -52
0 -52 0 -42 -132z m120 -70 c1 -5 -10 -8 -24 -8 -28 0 -30 4 -13 51 l11 33 13
-34 c7 -19 13 -38 13 -42z"/>
<path d="M4910 1150 c0 -16 5 -30 10 -30 6 0 10 -43 10 -110 0 -67 -4 -110
-10 -110 -5 0 -10 -13 -10 -30 l0 -30 70 0 70 0 0 30 c0 17 -5 30 -10 30 -7 0
-10 38 -8 108 3 106 3 107 28 108 14 0 35 -5 48 -13 38 -23 62 -8 62 38 l0 39
-130 0 -130 0 0 -30z"/>
<path d="M5251 1040 c-28 -88 -49 -140 -58 -140 -8 0 -13 -12 -13 -30 0 -29 1
-30 51 -30 47 0 51 2 60 30 10 27 15 30 55 30 41 0 46 -3 55 -30 10 -28 15
-30 60 -30 47 0 49 1 49 29 0 16 -5 31 -12 33 -6 2 -30 65 -53 139 l-43 134
-53 3 -54 3 -44 -141z m113 -22 c10 -38 7 -48 -14 -48 -11 0 -20 6 -20 13 0
23 12 57 20 57 4 0 10 -10 14 -22z"/>
<path d="M5570 1171 c-21 -6 -25 -13 -22 -42 4 -50 16 -56 66 -31 52 27 78 21
74 -17 -2 -20 -10 -27 -32 -31 -17 -3 -29 -8 -28 -12 1 -5 2 -17 2 -28 0 -14
7 -20 23 -20 29 0 47 -18 47 -46 0 -36 -24 -47 -89 -41 -54 6 -59 5 -64 -15
-8 -29 -2 -36 41 -48 71 -19 148 -5 188 35 33 33 33 97 1 129 -23 23 -23 24
-4 47 24 30 16 76 -19 107 -21 18 -36 22 -92 21 -37 -1 -78 -4 -92 -8z"/>
<path d="M5830 1154 c0 -14 7 -32 15 -40 12 -12 15 -43 15 -145 l0 -129 48 0
47 0 50 93 50 92 3 -92 3 -93 49 0 50 0 0 134 c0 79 4 137 10 141 6 3 10 19
10 36 0 29 0 29 -59 29 l-59 0 -53 -97 -54 -97 -3 59 c-2 32 2 63 7 68 6 6 11
24 11 39 0 28 0 28 -70 28 -69 0 -70 -1 -70 -26z"/>
<path d="M6210 1151 c0 -17 5 -33 10 -36 6 -3 10 -52 10 -111 0 -63 -4 -104
-10 -104 -5 0 -10 -13 -10 -30 l0 -30 70 0 70 0 0 30 c0 17 -4 30 -10 30 -5 0
-10 18 -10 40 l0 40 40 0 c39 0 40 -1 40 -34 0 -19 -4 -38 -10 -41 -5 -3 -10
-19 -10 -36 l0 -29 70 0 70 0 0 29 c0 16 -4 31 -9 33 -15 5 -17 211 -3 216 7
2 12 17 12 33 l0 29 -70 0 -70 0 0 -35 c0 -19 5 -35 10 -35 6 0 10 -13 10 -29
0 -30 -14 -41 -56 -41 -21 0 -24 4 -24 40 0 22 5 40 10 40 6 0 10 14 10 30 l0
30 -70 0 -70 0 0 -29z"/>
<path d="M6990 1151 c0 -17 5 -33 10 -36 6 -4 10 -62 10 -141 l0 -134 90 0
c88 0 149 14 164 39 13 20 16 76 5 107 -11 36 -38 50 -116 59 -55 7 -63 18
-47 59 8 21 72 22 80 2 3 -9 16 -13 32 -12 24 3 27 8 30 45 l3 41 -130 0 -131
0 0 -29z m179 -180 c25 -25 17 -59 -15 -67 -35 -9 -54 2 -54 30 0 57 32 74 69
37z"/>
<path d="M7310 1154 c0 -18 17 -41 60 -81 33 -30 60 -59 60 -64 0 -6 -26 -37
-58 -69 -55 -57 -57 -61 -45 -85 21 -39 56 -32 113 21 l50 47 0 -42 0 -41 50
0 50 0 0 41 0 42 50 -47 c58 -54 91 -60 109 -19 12 25 10 29 -17 53 -17 14
-45 42 -63 63 l-32 38 49 50 c26 27 54 49 61 49 8 0 13 13 13 35 0 34 -1 35
-37 35 -31 0 -45 -8 -85 -47 l-48 -47 0 47 0 47 -50 0 -50 0 0 -47 0 -47 -48
47 c-42 41 -53 47 -90 47 -38 0 -42 -2 -42 -26z"/>
<path d="M7800 1154 c0 -15 6 -32 14 -38 7 -6 24 -42 36 -80 12 -38 31 -77 41
-87 16 -16 17 -20 3 -34 -9 -8 -22 -15 -30 -15 -9 0 -14 -11 -14 -30 0 -28 2
-30 41 -30 60 0 87 33 133 163 21 59 42 110 47 113 5 3 9 18 9 35 0 28 -2 29
-48 29 l-48 0 -18 -75 c-10 -41 -21 -75 -25 -75 -4 0 -15 34 -25 75 l-18 75
-49 0 c-46 0 -49 -1 -49 -26z"/>
<path d="M8120 1151 c0 -17 5 -33 10 -36 6 -3 10 -52 10 -111 0 -63 -4 -104
-10 -104 -5 0 -10 -13 -10 -30 l0 -30 230 0 230 0 0 30 c0 17 -4 30 -10 30 -6
0 -10 41 -10 104 0 59 4 108 10 111 6 3 10 19 10 36 0 29 0 29 -60 29 l-60 0
0 -140 0 -140 -30 0 -30 0 0 140 0 140 -50 0 -50 0 0 -140 0 -140 -30 0 -30 0
0 140 0 140 -60 0 c-60 0 -60 0 -60 -29z"/>
<path d="M8620 1145 c0 -19 5 -35 10 -35 6 0 10 -52 10 -135 l0 -135 45 0 45
0 0 55 c0 30 4 55 8 55 4 0 30 -22 56 -49 27 -28 63 -55 79 -62 27 -11 32 -10
48 10 19 24 25 51 12 51 -5 0 -35 25 -68 55 l-60 55 63 60 c44 42 62 67 62 85
0 23 -4 25 -42 25 -38 0 -48 -6 -100 -57 l-58 -57 0 57 0 57 -55 0 -55 0 0
-35z"/>
<path d="M9067 1173 c-3 -4 -23 -68 -46 -140 -23 -73 -46 -133 -51 -133 -6 0
-10 -13 -10 -30 0 -29 2 -30 46 -30 41 0 46 3 55 30 10 28 15 30 59 30 46 0
49 -2 55 -30 6 -28 9 -30 56 -30 47 0 49 1 49 29 0 16 -5 31 -10 33 -6 2 -30
64 -53 138 l-43 135 -51 3 c-28 2 -53 -1 -56 -5z m72 -185 c1 -12 -6 -18 -19
-18 -23 0 -25 17 -8 56 l13 27 6 -24 c4 -13 7 -32 8 -41z"/>
<path d="M9430 1070 c0 -34 6 -46 31 -67 l30 -26 -31 -32 c-26 -26 -31 -39
-28 -69 l3 -36 63 50 c56 46 62 54 62 88 -1 34 -6 41 -65 85 l-65 47 0 -40z"/>
<path d="M6757 1059 c-54 -38 -57 -42 -57 -82 0 -39 4 -45 53 -83 78 -60 77
-60 77 -20 0 27 -7 42 -30 63 -16 14 -30 30 -30 35 0 5 14 21 30 35 23 18 30
33 30 59 0 19 -4 34 -8 34 -5 0 -34 -18 -65 -41z"/>
<path d="M6880 1057 c-49 -39 -55 -47 -55 -81 0 -35 6 -42 63 -88 l62 -50 0
39 c0 31 -7 46 -30 68 l-30 29 30 31 c21 21 30 41 30 63 0 18 -3 32 -7 32 -5
-1 -33 -20 -63 -43z"/>
<path d="M9300 1067 c0 -27 7 -41 30 -60 17 -14 30 -29 30 -34 0 -4 -13 -21
-30 -36 -22 -21 -30 -38 -30 -63 0 -40 0 -40 78 21 46 36 51 44 52 80 0 37 -4
44 -50 78 -73 55 -80 56 -80 14z"/>
<path d="M3910 975 l0 -36 83 3 82 3 0 30 0 30 -82 3 -83 3 0 -36z"/>
<path d="M2516 788 c-8 -18 -26 -86 -41 -150 -15 -65 -31 -120 -36 -124 -6 -3
-18 1 -28 10 -26 24 -83 164 -83 203 0 26 -4 33 -19 33 -28 0 -59 -36 -59 -67
0 -46 59 -150 111 -197 l48 -43 -126 -123 c-128 -125 -229 -200 -268 -200 -45
0 -57 -38 -26 -79 l19 -24 58 23 c46 19 80 45 155 120 53 52 117 120 144 150
l47 55 -6 -40 c-3 -22 -8 -72 -12 -112 -7 -71 -6 -72 20 -84 45 -21 70 15 97
141 13 58 26 109 30 113 4 5 16 -16 28 -47 37 -100 108 -230 146 -268 69 -68
122 -72 161 -12 17 25 17 27 -1 40 -10 8 -27 14 -36 14 -10 0 -38 21 -64 46
-42 42 -60 68 -120 173 -11 18 -30 48 -42 67 l-22 33 46 27 c58 33 199 172
213 209 13 35 13 41 -6 59 -25 26 -42 19 -62 -26 -23 -50 -157 -208 -177 -208
-7 0 -20 -3 -28 -6 -12 -4 -11 14 9 103 32 146 31 165 -7 197 -39 33 -46 33
-63 -6z"/>
<path d="M4978 680 c-53 -28 -73 -59 -99 -152 -27 -99 -32 -263 -10 -315 34
-81 111 -34 111 67 0 41 1 41 29 35 26 -5 33 -2 55 32 27 39 32 53 18 53 -4 0
-16 -16 -26 -35 -11 -19 -23 -35 -27 -35 -4 0 -22 12 -41 27 -18 15 -35 28
-37 30 -2 1 22 32 53 69 31 37 60 80 63 96 3 15 10 31 14 34 17 10 9 74 -11
94 -25 25 -45 25 -92 0z m88 -35 c7 -30 -8 -71 -51 -140 -36 -58 -65 -86 -65
-64 1 41 30 170 44 197 21 41 62 45 72 7z m-111 -391 c-3 -24 -10 -44 -16 -44
-11 0 -12 123 -2 134 14 13 25 -44 18 -90z"/>
<path d="M3958 493 c-19 -23 -48 -145 -48 -204 0 -89 57 -85 81 5 13 50 42
108 62 124 12 10 12 3 -1 -53 -13 -59 -13 -68 2 -90 20 -30 62 -34 71 -6 3 10
6 40 7 66 0 38 6 54 30 79 16 17 27 26 24 20 -3 -7 -12 -41 -19 -77 -16 -72
-5 -118 28 -131 25 -9 76 28 109 81 16 24 29 43 30 43 1 0 -2 -27 -8 -59 -10
-63 2 -98 31 -87 8 3 22 0 32 -6 41 -25 110 30 146 117 16 36 16 40 -3 64 -21
28 -65 39 -87 21 -12 -10 -13 -6 -9 22 8 45 -25 90 -50 69 -9 -7 -16 -20 -16
-29 0 -9 -25 -53 -55 -98 -53 -79 -81 -111 -89 -103 -2 2 4 36 14 74 24 91 24
118 1 146 l-20 24 -39 -38 -39 -38 -13 30 c-16 41 -41 39 -79 -4 -35 -40 -41
-43 -34 -15 5 20 -20 70 -36 70 -4 0 -15 -8 -23 -17z m532 -110 c0 -30 -26
-89 -52 -118 -29 -34 -58 -46 -58 -25 0 20 40 113 56 131 17 19 54 26 54 12z"/>
<path d="M5420 483 c-56 -47 -88 -133 -70 -189 13 -38 62 -84 90 -84 34 0 71
23 100 64 30 40 30 40 30 12 0 -84 92 -113 131 -40 l13 25 16 -33 c17 -36 59
-50 86 -27 25 20 105 150 101 163 -2 6 -24 -21 -50 -60 -42 -67 -64 -91 -72
-83 -1 2 5 36 15 74 19 76 14 95 -26 95 -20 0 -31 -14 -64 -80 -38 -76 -61
-97 -73 -66 -16 40 78 166 124 166 25 0 25 26 0 40 -31 16 -63 12 -100 -13
-19 -12 -43 -27 -53 -33 -10 -6 -31 -31 -47 -55 -43 -68 -91 -119 -112 -119
-23 0 -43 44 -35 75 3 12 15 43 27 69 18 42 22 46 33 30 17 -22 33 -12 41 26
10 48 -1 67 -40 68 -24 1 -44 -7 -65 -25z"/>
<path d="M7115 476 c-90 -95 -87 -218 4 -256 46 -19 77 -5 124 55 l42 55 5
-56 c4 -43 11 -61 29 -75 48 -39 126 -10 185 71 16 22 31 38 34 36 2 -3 -5
-37 -16 -78 -25 -91 -36 -179 -24 -197 16 -22 49 -3 65 37 12 32 44 152 62
235 6 32 71 107 91 107 19 0 18 -48 -1 -94 -9 -22 -30 -46 -51 -58 -42 -25
-59 -52 -41 -66 43 -35 112 -13 149 47 12 20 35 47 51 60 24 20 57 70 57 86 0
16 -18 1 -34 -29 -26 -49 -46 -54 -46 -11 0 38 -41 95 -68 95 -10 0 -32 -9
-49 -20 l-33 -20 -20 40 c-27 53 -46 52 -52 -4 -10 -83 -166 -252 -201 -217
-15 15 -13 74 3 79 26 9 93 78 107 110 23 55 -13 91 -75 77 -31 -6 -117 -90
-150 -145 -11 -19 -37 -51 -57 -70 -29 -28 -39 -32 -53 -24 -26 16 -26 75 -1
134 21 48 23 50 40 34 22 -20 22 -20 37 24 16 47 2 68 -44 70 -30 1 -43 -5
-69 -32z m320 -101 c-31 -41 -53 -47 -28 -7 28 44 47 65 51 52 2 -6 -8 -26
-23 -45z"/>
<path d="M3386 465 c-20 -19 -51 -59 -69 -88 -50 -78 -96 -127 -119 -127 -20
0 -21 4 -15 75 5 68 4 75 -13 75 -13 0 -23 -14 -34 -47 -21 -62 -8 -120 30
-129 47 -12 86 18 153 115 34 50 63 91 65 91 1 0 -8 -31 -21 -70 -22 -64 -22
-72 -9 -105 13 -29 20 -35 46 -35 40 0 74 26 111 85 28 44 47 95 35 95 -3 0
-19 -24 -36 -53 -30 -54 -90 -120 -90 -100 0 6 14 50 30 96 35 100 37 132 11
147 -30 15 -37 13 -75 -25z"/>
<path d="M6174 464 c-20 -20 -51 -61 -70 -90 -50 -78 -93 -124 -116 -124 -18
0 -20 6 -16 72 2 59 0 73 -12 76 -11 2 -21 -13 -33 -45 -22 -63 -9 -120 30
-129 46 -12 85 18 152 115 34 50 63 91 65 91 2 0 -8 -31 -21 -68 -23 -65 -24
-71 -9 -105 13 -32 19 -37 49 -37 25 0 43 9 70 35 36 35 37 35 37 12 0 -37 36
-77 70 -77 36 0 84 40 113 94 20 38 22 39 24 16 7 -61 24 -97 48 -108 53 -24
99 -8 156 55 44 49 83 112 74 121 -3 4 -11 -1 -16 -10 -43 -77 -141 -160 -169
-143 -6 3 -10 21 -10 39 0 26 8 38 38 60 50 38 92 94 92 122 0 14 -10 30 -24
39 -37 25 -89 11 -126 -34 -16 -20 -35 -43 -42 -51 -7 -9 -32 -45 -56 -82 -43
-66 -86 -106 -96 -89 -4 5 3 38 14 73 22 70 25 120 10 149 -16 28 -49 24 -61
-8 -33 -90 -108 -197 -125 -180 -4 3 6 39 21 79 38 100 42 138 19 155 -27 20
-40 16 -80 -23z m506 -49 c0 -8 -14 -29 -31 -47 -26 -28 -29 -30 -18 -8 15 32
40 70 45 70 2 0 4 -7 4 -15z"/>
<path d="M8424 480 c-11 -4 -58 -51 -103 -104 -82 -96 -104 -114 -94 -76 5 20
-20 70 -36 70 -5 0 -23 -24 -39 -52 -16 -29 -41 -63 -54 -75 l-24 -23 19 78
c18 72 18 81 4 115 -22 51 -42 47 -62 -12 -16 -49 -92 -177 -100 -169 -2 2 5
32 15 67 26 83 25 92 -10 126 -39 37 -43 31 -60 -86 -15 -103 -6 -139 33 -139
26 0 65 36 83 78 l12 27 1 -37 c1 -42 33 -83 58 -74 8 3 18 6 23 6 5 0 23 20
41 45 18 25 34 43 36 41 10 -9 -29 -63 -61 -86 -50 -36 -61 -65 -35 -91 37
-37 105 3 131 77 11 32 35 67 68 99 l50 49 0 -52 c0 -43 5 -58 25 -77 59 -60
152 -9 234 128 28 45 11 50 -20 5 -53 -77 -131 -141 -149 -121 -4 4 -11 18
-15 31 -5 19 3 31 51 75 64 58 90 107 75 136 -17 30 -54 39 -97 21z m52 -87
c-15 -29 -46 -62 -46 -49 0 21 49 90 57 82 3 -2 -2 -17 -11 -33z m-360 -238
c-15 -23 -36 -34 -36 -18 0 10 43 54 48 48 3 -2 -3 -16 -12 -30z"/>
<path d="M2879 447 c-64 -43 -112 -142 -93 -195 13 -37 58 -58 89 -42 13 7 29
23 36 37 l13 24 18 -34 c21 -41 37 -49 68 -34 28 14 123 152 117 170 -2 7 -17
-10 -33 -37 -34 -57 -80 -113 -88 -106 -2 3 4 37 14 75 20 76 15 95 -26 95
-18 0 -30 -15 -62 -77 -40 -79 -72 -106 -72 -61 1 60 75 158 121 158 25 0 25
26 0 40 -31 16 -65 12 -102 -13z"/>
<path d="M3556 371 c-15 -70 -15 -95 1 -153 8 -32 49 -21 87 24 l36 42 0 -35
c0 -40 33 -79 67 -79 31 0 77 43 118 111 53 86 37 95 -19 11 -45 -68 -80 -101
-93 -88 -3 3 1 34 10 68 26 102 27 123 11 147 -26 36 -47 26 -68 -31 -19 -54
-62 -124 -90 -147 -13 -11 -14 -9 -5 21 6 18 16 54 21 80 9 43 8 50 -13 77
-13 16 -29 30 -35 30 -6 1 -19 -34 -28 -78z"/>
</g>
</svg>
