<?xml version="1.0" encoding="UTF-8"?>
<svg xmlns="http://www.w3.org/2000/svg" xmlns:xlink="http://www.w3.org/1999/xlink" width="18px" height="18px" viewBox="0 0 18 19" version="1.1">
<g id="surface1">
<path style=" stroke:none;fill-rule:nonzero;fill:rgb(0%,0%,0%);fill-opacity:1;" d="M 4.957031 1.546875 C 4.675781 1.59375 4.472656 1.707031 4.113281 2.007812 C 3.863281 2.230469 3.316406 2.761719 3.089844 3.015625 C 2.695312 3.460938 2.386719 4.058594 2.246094 4.660156 C 2.203125 4.835938 2.199219 4.921875 2.199219 5.292969 C 2.199219 5.65625 2.203125 5.761719 2.246094 5.953125 C 2.425781 6.855469 2.925781 7.757812 3.773438 8.742188 C 4.261719 9.300781 8.753906 13.519531 9.515625 14.125 C 10.621094 15.007812 11.621094 15.527344 12.621094 15.746094 C 12.796875 15.785156 12.839844 15.808594 12.839844 15.855469 C 12.839844 15.917969 12.621094 16.214844 12.464844 16.367188 C 12.09375 16.714844 11.644531 16.90625 11.097656 16.925781 C 10.546875 16.949219 10.054688 16.789062 9.660156 16.453125 C 9.347656 16.183594 9.1875 15.917969 8.964844 15.261719 C 8.792969 14.742188 8.777344 14.710938 8.660156 14.625 C 8.542969 14.546875 8.449219 14.53125 8.332031 14.570312 C 8.121094 14.644531 8.109375 14.671875 7.800781 15.597656 C 7.714844 15.835938 7.628906 16.078125 7.605469 16.121094 L 7.570312 16.207031 L 7.546875 16.144531 C 7.527344 16.117188 7.429688 15.824219 7.324219 15.5 C 7.101562 14.804688 7.042969 14.683594 6.914062 14.609375 C 6.726562 14.507812 6.480469 14.570312 6.386719 14.746094 C 6.347656 14.828125 6.234375 15.140625 5.976562 15.898438 C 5.902344 16.128906 5.863281 16.214844 5.847656 16.191406 C 5.835938 16.175781 5.746094 15.910156 5.648438 15.609375 C 5.410156 14.890625 5.34375 14.730469 5.253906 14.648438 C 5.0625 14.46875 4.761719 14.550781 4.636719 14.816406 C 4.613281 14.871094 4.5 15.1875 4.394531 15.511719 C 4.289062 15.832031 4.191406 16.121094 4.171875 16.164062 L 4.144531 16.226562 L 4.042969 15.941406 C 3.988281 15.78125 3.890625 15.484375 3.824219 15.277344 C 3.679688 14.839844 3.621094 14.722656 3.519531 14.644531 C 3.363281 14.523438 3.222656 14.519531 3.070312 14.621094 C 2.957031 14.695312 2.910156 14.796875 2.683594 15.5 C 2.578125 15.820312 2.480469 16.109375 2.464844 16.144531 L 2.4375 16.207031 L 2.394531 16.121094 C 2.378906 16.078125 2.273438 15.773438 2.160156 15.441406 C 2.058594 15.117188 1.945312 14.816406 1.921875 14.765625 C 1.875 14.667969 1.734375 14.570312 1.617188 14.550781 C 1.519531 14.535156 1.40625 14.574219 1.308594 14.65625 C 1.21875 14.742188 1.171875 14.847656 0.914062 15.660156 C 0.527344 16.871094 0.421875 17.21875 0.441406 17.269531 C 0.464844 17.332031 0.644531 17.46875 0.703125 17.46875 C 0.777344 17.46875 0.910156 17.402344 0.941406 17.339844 C 0.964844 17.308594 1.050781 17.070312 1.136719 16.8125 C 1.21875 16.554688 1.347656 16.167969 1.417969 15.957031 C 1.488281 15.746094 1.550781 15.5625 1.566406 15.550781 C 1.582031 15.535156 1.667969 15.785156 1.902344 16.503906 C 2.085938 17.046875 2.097656 17.066406 2.273438 17.148438 C 2.410156 17.214844 2.425781 17.21875 2.507812 17.195312 C 2.621094 17.160156 2.714844 17.085938 2.777344 16.972656 C 2.816406 16.886719 2.976562 16.4375 3.191406 15.773438 C 3.234375 15.65625 3.269531 15.558594 3.28125 15.558594 C 3.304688 15.558594 3.375 15.746094 3.566406 16.339844 C 3.800781 17.054688 3.808594 17.066406 3.988281 17.148438 C 4.125 17.214844 4.136719 17.21875 4.214844 17.191406 C 4.347656 17.15625 4.429688 17.082031 4.5 16.949219 C 4.550781 16.84375 4.667969 16.511719 4.925781 15.722656 C 4.96875 15.609375 5.003906 15.523438 5.015625 15.535156 C 5.019531 15.539062 5.109375 15.796875 5.207031 16.09375 C 5.496094 16.996094 5.542969 17.085938 5.738281 17.171875 C 5.824219 17.214844 5.847656 17.214844 5.925781 17.191406 C 6.167969 17.128906 6.207031 17.058594 6.464844 16.289062 C 6.660156 15.675781 6.703125 15.558594 6.726562 15.558594 C 6.738281 15.558594 6.800781 15.738281 6.878906 15.960938 C 7.21875 16.996094 7.261719 17.085938 7.410156 17.15625 C 7.523438 17.207031 7.660156 17.203125 7.769531 17.144531 C 7.898438 17.074219 7.957031 16.957031 8.183594 16.253906 C 8.296875 15.933594 8.394531 15.636719 8.414062 15.597656 L 8.449219 15.527344 L 8.535156 15.769531 C 8.648438 16.058594 8.753906 16.253906 8.925781 16.464844 C 9.308594 16.957031 9.871094 17.292969 10.535156 17.425781 C 10.761719 17.46875 11.246094 17.46875 11.472656 17.425781 C 12.28125 17.257812 12.933594 16.789062 13.316406 16.089844 C 13.386719 15.96875 13.441406 15.867188 13.441406 15.867188 C 13.449219 15.867188 13.570312 15.855469 13.722656 15.835938 C 14.058594 15.8125 14.4375 15.738281 14.695312 15.65625 C 15.152344 15.511719 15.636719 15.25 16.035156 14.945312 C 16.300781 14.742188 17.160156 13.941406 17.296875 13.789062 C 17.417969 13.632812 17.488281 13.472656 17.535156 13.261719 C 17.601562 12.984375 17.566406 12.679688 17.441406 12.445312 C 17.183594 11.945312 16.394531 11.242188 15.308594 10.566406 C 14.941406 10.332031 14.695312 10.203125 14.53125 10.140625 C 14.402344 10.09375 14.347656 10.089844 14.039062 10.082031 L 13.691406 10.078125 L 13.550781 10.132812 C 13.386719 10.207031 13.269531 10.316406 12.960938 10.652344 C 12.609375 11.046875 12.351562 11.277344 12.175781 11.359375 C 11.855469 11.519531 11.605469 11.5625 11.347656 11.503906 C 11.136719 11.457031 10.988281 11.371094 10.730469 11.167969 C 10.453125 10.9375 7.523438 8.210938 7.222656 7.90625 C 6.886719 7.554688 6.773438 7.289062 6.832031 6.964844 C 6.902344 6.570312 7.148438 6.269531 7.832031 5.75 C 8.113281 5.53125 8.226562 5.417969 8.316406 5.253906 C 8.363281 5.171875 8.367188 5.132812 8.371094 4.882812 C 8.386719 4.4375 8.332031 4.304688 7.917969 3.722656 C 7.160156 2.65625 6.347656 1.84375 5.792969 1.628906 C 5.582031 1.542969 5.222656 1.507812 4.957031 1.546875 Z M 5.464844 2.082031 C 5.917969 2.214844 6.660156 2.921875 7.347656 3.882812 C 7.816406 4.527344 7.933594 4.808594 7.828125 5.007812 C 7.808594 5.046875 7.699219 5.15625 7.574219 5.253906 C 7.128906 5.605469 6.730469 5.953125 6.660156 6.046875 C 6.5625 6.164062 6.402344 6.46875 6.351562 6.617188 C 6.328125 6.679688 6.304688 6.730469 6.300781 6.730469 C 6.28125 6.730469 6.164062 6.484375 6.074219 6.25 C 6.035156 6.136719 5.972656 5.921875 5.933594 5.761719 C 5.835938 5.316406 5.777344 5.222656 5.589844 5.222656 C 5.503906 5.222656 5.480469 5.234375 5.417969 5.285156 C 5.378906 5.328125 5.34375 5.378906 5.339844 5.433594 C 5.296875 5.617188 5.386719 6.027344 5.550781 6.445312 C 5.8125 7.128906 6.105469 7.574219 6.667969 8.148438 C 7.335938 8.820312 10.097656 11.367188 10.570312 11.742188 C 10.96875 12.0625 11.371094 12.292969 11.917969 12.507812 C 12.589844 12.777344 13.40625 12.960938 13.664062 12.910156 C 13.78125 12.878906 13.886719 12.769531 13.886719 12.675781 C 13.886719 12.589844 13.828125 12.484375 13.757812 12.453125 C 13.734375 12.441406 13.527344 12.394531 13.308594 12.347656 C 12.878906 12.269531 12.421875 12.144531 12.191406 12.046875 L 12.050781 11.988281 L 12.230469 11.921875 C 12.328125 11.886719 12.457031 11.828125 12.519531 11.796875 C 12.636719 11.730469 12.957031 11.488281 13.007812 11.417969 C 13.097656 11.308594 13.785156 10.597656 13.828125 10.574219 C 13.902344 10.535156 14.136719 10.5625 14.324219 10.636719 C 14.625 10.761719 15.300781 11.179688 15.824219 11.566406 C 16.148438 11.804688 16.683594 12.304688 16.816406 12.492188 C 17.066406 12.84375 17.082031 13.171875 16.863281 13.445312 C 16.746094 13.582031 15.949219 14.324219 15.707031 14.511719 C 15.121094 14.96875 14.378906 15.285156 13.804688 15.3125 L 13.589844 15.324219 L 13.589844 14.941406 C 13.589844 14.722656 13.574219 14.519531 13.566406 14.476562 C 13.519531 14.324219 13.332031 14.25 13.191406 14.3125 C 13.03125 14.386719 13.027344 14.410156 13.007812 14.871094 C 12.996094 15.101562 12.984375 15.289062 12.980469 15.289062 C 12.964844 15.304688 12.542969 15.214844 12.351562 15.152344 C 11.566406 14.894531 10.804688 14.472656 10.074219 13.875 C 9.253906 13.207031 5.425781 9.664062 4.5 8.722656 C 3.558594 7.753906 2.996094 6.832031 2.792969 5.914062 C 2.738281 5.664062 2.738281 4.972656 2.792969 4.738281 C 2.917969 4.195312 3.214844 3.683594 3.660156 3.203125 C 3.925781 2.921875 4.605469 2.296875 4.761719 2.1875 C 4.828125 2.140625 4.925781 2.089844 4.972656 2.078125 C 5.109375 2.039062 5.316406 2.039062 5.464844 2.082031 Z M 5.464844 2.082031 "/>
</g>
</svg>
