<?xml version="1.0" encoding="UTF-8"?>
<svg xmlns="http://www.w3.org/2000/svg" xmlns:xlink="http://www.w3.org/1999/xlink" width="13px" height="13px" viewBox="0 0 13 13" version="1.1">
<g id="surface1">
<path style=" stroke:none;fill-rule:nonzero;fill:rgb(0%,0%,0%);fill-opacity:1;" d="M 3.96875 1.648438 C 3.355469 1.738281 2.828125 2.003906 2.394531 2.449219 C 1.644531 3.210938 1.425781 4.320312 1.835938 5.269531 C 1.933594 5.503906 1.960938 5.636719 1.945312 5.824219 C 1.894531 6.445312 1.941406 7.28125 2.046875 7.675781 C 2.160156 8.121094 2.460938 8.773438 2.703125 9.128906 C 2.984375 9.539062 3.503906 10.046875 3.929688 10.328125 C 4.878906 10.960938 5.859375 11.195312 7.199219 11.105469 C 7.40625 11.09375 7.570312 11.125 7.84375 11.226562 C 9.246094 11.730469 10.890625 10.855469 11.273438 9.394531 C 11.394531 8.953125 11.371094 8.304688 11.226562 7.871094 C 11.109375 7.523438 11.105469 7.46875 11.15625 7.136719 C 11.273438 6.390625 11.125 5.425781 10.78125 4.679688 C 10.304688 3.648438 9.605469 2.941406 8.574219 2.445312 C 7.800781 2.070312 6.808594 1.890625 6.074219 1.988281 C 5.816406 2.023438 5.746094 2.015625 5.550781 1.921875 C 5.070312 1.683594 4.449219 1.578125 3.96875 1.648438 Z M 4.886719 2.53125 C 5.015625 2.574219 5.230469 2.675781 5.359375 2.753906 C 5.578125 2.890625 5.613281 2.894531 5.855469 2.851562 C 6.296875 2.765625 7.046875 2.789062 7.480469 2.898438 C 9.003906 3.289062 10.070312 4.445312 10.335938 5.984375 C 10.40625 6.414062 10.410156 6.53125 10.351562 6.949219 C 10.253906 7.609375 10.265625 7.730469 10.425781 8.09375 C 10.546875 8.378906 10.558594 8.464844 10.539062 8.800781 C 10.5 9.496094 10.128906 10.054688 9.503906 10.363281 C 9.199219 10.515625 9.140625 10.523438 8.675781 10.523438 C 8.214844 10.523438 8.144531 10.511719 7.839844 10.363281 C 7.550781 10.230469 7.484375 10.214844 7.316406 10.253906 C 6.988281 10.335938 6.058594 10.316406 5.675781 10.21875 C 4.160156 9.851562 3.035156 8.671875 2.773438 7.175781 C 2.679688 6.628906 2.679688 6.46875 2.773438 5.933594 L 2.851562 5.503906 L 2.660156 5.140625 C 2.484375 4.796875 2.476562 4.75 2.476562 4.300781 C 2.476562 3.890625 2.496094 3.785156 2.605469 3.546875 C 2.839844 3.046875 3.253906 2.679688 3.765625 2.523438 C 4.054688 2.429688 4.601562 2.433594 4.886719 2.53125 Z M 4.886719 2.53125 "/>
<path style=" stroke:none;fill-rule:nonzero;fill:rgb(0%,0%,0%);fill-opacity:1;" d="M 5.988281 3.351562 C 5.34375 3.429688 4.769531 3.648438 4.429688 3.953125 C 4.335938 4.035156 4.183594 4.246094 4.101562 4.410156 C 3.851562 4.914062 3.898438 5.554688 4.226562 5.980469 C 4.558594 6.421875 5.089844 6.660156 6.398438 6.96875 C 7.476562 7.226562 7.765625 7.410156 7.765625 7.84375 C 7.765625 8.320312 7.25 8.648438 6.496094 8.648438 C 5.839844 8.648438 5.515625 8.445312 5.179688 7.804688 C 4.964844 7.394531 4.78125 7.25 4.476562 7.25 C 4.214844 7.25 4.054688 7.335938 3.910156 7.550781 C 3.679688 7.886719 3.855469 8.449219 4.351562 8.949219 C 4.855469 9.464844 5.464844 9.664062 6.523438 9.671875 C 7.558594 9.675781 8.234375 9.453125 8.730469 8.960938 C 9.371094 8.316406 9.433594 7.28125 8.871094 6.65625 C 8.523438 6.273438 8.039062 6.058594 6.875 5.773438 C 6.355469 5.644531 5.859375 5.511719 5.773438 5.464844 C 5.320312 5.234375 5.21875 4.910156 5.519531 4.628906 C 5.734375 4.425781 5.988281 4.351562 6.484375 4.351562 C 7.03125 4.351562 7.25 4.464844 7.550781 4.914062 C 7.863281 5.378906 7.953125 5.453125 8.210938 5.484375 C 8.628906 5.535156 8.949219 5.253906 8.949219 4.855469 C 8.945312 3.871094 7.539062 3.15625 5.988281 3.351562 Z M 5.988281 3.351562 "/>
</g>
</svg>
