<?xml version="1.0" encoding="UTF-8"?>
<svg xmlns="http://www.w3.org/2000/svg" xmlns:xlink="http://www.w3.org/1999/xlink" width="18px" height="18px" viewBox="0 0 18 18" version="1.1">
<g id="surface1">
<path style=" stroke:none;fill-rule:nonzero;fill:rgb(0%,0%,0%);fill-opacity:1;" d="M 15.523438 1.347656 C 15.453125 1.363281 15.328125 1.402344 15.246094 1.429688 C 15.121094 1.476562 14.328125 1.859375 13.292969 2.375 C 13.191406 2.429688 12.710938 2.667969 12.222656 2.90625 C 11.742188 3.148438 10.757812 3.632812 10.039062 3.992188 C 9.320312 4.34375 8.324219 4.839844 7.820312 5.089844 C 7.316406 5.339844 6.625 5.679688 6.28125 5.851562 C 5.933594 6.023438 5.527344 6.230469 5.375 6.300781 C 5.230469 6.371094 5.035156 6.46875 4.9375 6.515625 C 4.847656 6.566406 4.046875 6.960938 3.160156 7.398438 C 2.277344 7.835938 1.480469 8.242188 1.394531 8.296875 C 1.15625 8.453125 0.941406 8.6875 0.820312 8.90625 C 0.699219 9.152344 0.660156 9.335938 0.671875 9.601562 C 0.6875 9.945312 0.820312 10.238281 1.082031 10.5 C 1.308594 10.726562 1.550781 10.859375 2.023438 11.035156 C 2.152344 11.082031 2.570312 11.238281 2.941406 11.378906 C 3.316406 11.519531 3.695312 11.648438 3.773438 11.675781 C 4.003906 11.730469 4.332031 11.773438 4.558594 11.773438 L 4.757812 11.773438 L 4.699219 11.839844 C 4.625 11.929688 4.539062 12.117188 4.488281 12.304688 C 4.40625 12.597656 4.445312 13.035156 4.582031 13.386719 C 4.609375 13.460938 4.820312 13.917969 5.039062 14.390625 C 5.261719 14.863281 5.527344 15.425781 5.625 15.640625 C 5.726562 15.859375 5.832031 16.078125 5.863281 16.140625 C 5.945312 16.285156 6.171875 16.492188 6.351562 16.570312 C 6.535156 16.660156 6.652344 16.679688 6.890625 16.679688 C 7.386719 16.679688 7.636719 16.492188 8.195312 15.695312 C 8.578125 15.148438 9.085938 14.359375 9.15625 14.199219 C 9.1875 14.121094 9.234375 13.980469 9.253906 13.890625 L 9.285156 13.722656 L 9.972656 13.988281 C 10.351562 14.132812 11.007812 14.382812 11.433594 14.542969 C 11.855469 14.707031 12.292969 14.878906 12.40625 14.933594 C 12.6875 15.050781 12.8125 15.085938 13.03125 15.085938 C 13.515625 15.085938 13.855469 14.851562 14.058594 14.382812 C 14.117188 14.246094 14.445312 13.136719 15.945312 7.921875 C 16.273438 6.773438 16.710938 5.246094 16.917969 4.53125 C 17.125 3.820312 17.308594 3.152344 17.328125 3.050781 C 17.367188 2.839844 17.355469 2.535156 17.308594 2.34375 C 17.183594 1.898438 16.828125 1.535156 16.355469 1.378906 C 16.195312 1.324219 15.71875 1.308594 15.523438 1.347656 Z M 16.089844 2.429688 C 16.257812 2.546875 16.269531 2.753906 16.140625 3.207031 C 16.089844 3.371094 15.847656 4.21875 15.59375 5.101562 C 13.726562 11.589844 13.105469 13.742188 13.054688 13.898438 C 13.035156 13.988281 13.011719 14.007812 12.992188 13.996094 C 12.96875 13.992188 12.492188 13.808594 11.9375 13.59375 C 10.542969 13.054688 9.628906 12.703125 8.691406 12.351562 C 7.746094 11.996094 7.5625 11.914062 7.441406 11.785156 C 7.210938 11.542969 7.230469 11.191406 7.492188 10.902344 C 7.535156 10.851562 8.53125 9.84375 9.699219 8.664062 C 13.125 5.1875 13.484375 4.828125 13.570312 4.722656 C 13.707031 4.546875 13.636719 4.566406 13.363281 4.753906 C 13.261719 4.824219 12.089844 5.699219 10.746094 6.703125 C 9.40625 7.695312 8.085938 8.679688 7.816406 8.886719 C 7.539062 9.085938 6.988281 9.503906 6.585938 9.800781 C 6.1875 10.097656 5.804688 10.378906 5.734375 10.421875 C 5.445312 10.601562 5.015625 10.703125 4.597656 10.703125 C 4.285156 10.703125 4.117188 10.675781 3.792969 10.550781 C 2.808594 10.191406 2.15625 9.941406 2.070312 9.898438 C 1.855469 9.785156 1.753906 9.617188 1.800781 9.449219 C 1.84375 9.296875 1.992188 9.179688 2.414062 8.972656 C 2.613281 8.871094 2.851562 8.75 2.949219 8.707031 C 3.039062 8.660156 3.628906 8.367188 4.25 8.058594 C 4.878906 7.746094 5.484375 7.449219 5.601562 7.386719 C 5.722656 7.328125 6.105469 7.140625 6.464844 6.960938 C 6.816406 6.789062 7.210938 6.59375 7.339844 6.527344 C 7.566406 6.414062 8.675781 5.863281 10.648438 4.882812 C 11.628906 4.402344 13.738281 3.359375 14.875 2.789062 C 15.253906 2.601562 15.621094 2.429688 15.683594 2.414062 C 15.835938 2.363281 16.007812 2.375 16.089844 2.429688 Z M 6.441406 12.539062 C 6.664062 12.644531 6.917969 12.773438 7 12.820312 C 7.078125 12.863281 7.308594 12.976562 7.5 13.066406 C 8.117188 13.359375 8.238281 13.484375 8.132812 13.757812 C 8.085938 13.890625 7.238281 15.160156 6.976562 15.492188 C 6.917969 15.5625 6.863281 15.621094 6.859375 15.613281 C 6.847656 15.609375 6.804688 15.527344 6.761719 15.429688 C 6.625 15.132812 6.296875 14.429688 5.988281 13.777344 C 5.636719 13.046875 5.59375 12.925781 5.578125 12.726562 C 5.566406 12.597656 5.570312 12.554688 5.613281 12.484375 C 5.652344 12.398438 5.691406 12.371094 5.789062 12.335938 C 5.804688 12.332031 5.867188 12.332031 5.921875 12.332031 C 6.007812 12.34375 6.132812 12.390625 6.441406 12.539062 Z M 6.441406 12.539062 "/>
</g>
</svg>
